<?xml version="1.0" encoding="UTF-8"?>
<svg width="1200" height="150" viewBox="0 0 1200 150" xmlns="http://www.w3.org/2000/svg">
  <style>
    .building {
      fill: #0a1128;
    }
    .window {
      fill: #ffd700;
      opacity: 0.7;
    }
  </style>

  <!-- NYC Skyline -->
  <g>
    <!-- Empire State Building -->
    <rect class="building" x="200" y="20" width="40" height="130"/>
    <rect class="building" x="190" y="60" width="60" height="90"/>
    <rect class="building" x="180" y="100" width="80" height="50"/>
    <rect class="window" x="205" y="30" width="5" height="8"/>
    <rect class="window" x="220" y="30" width="5" height="8"/>
    <rect class="window" x="230" y="30" width="5" height="8"/>
    <rect class="window" x="205" y="45" width="5" height="8"/>
    <rect class="window" x="220" y="45" width="5" height="8"/>
    <rect class="window" x="230" y="45" width="5" height="8"/>
    <rect class="window" x="195" y="70" width="5" height="8"/>
    <rect class="window" x="210" y="70" width="5" height="8"/>
    <rect class="window" x="225" y="70" width="5" height="8"/>
    <rect class="window" x="240" y="70" width="5" height="8"/>
    
    <!-- Freedom Tower -->
    <polygon class="building" points="380,10 380,150 450,150 450,60 415,10"/>
    <rect class="window" x="395" y="40" width="6" height="9"/>
    <rect class="window" x="410" y="40" width="6" height="9"/>
    <rect class="window" x="425" y="40" width="6" height="9"/>
    <rect class="window" x="395" y="60" width="6" height="9"/>
    <rect class="window" x="410" y="60" width="6" height="9"/>
    <rect class="window" x="425" y="60" width="6" height="9"/>
    <rect class="window" x="395" y="80" width="6" height="9"/>
    <rect class="window" x="410" y="80" width="6" height="9"/>
    <rect class="window" x="425" y="80" width="6" height="9"/>
    <rect class="window" x="395" y="100" width="6" height="9"/>
    <rect class="window" x="410" y="100" width="6" height="9"/>
    <rect class="window" x="425" y="100" width="6" height="9"/>
    <rect class="window" x="395" y="120" width="6" height="9"/>
    <rect class="window" x="410" y="120" width="6" height="9"/>
    <rect class="window" x="425" y="120" width="6" height="9"/>
    
    <!-- Chrysler Building -->
    <polygon class="building" points="550,25 565,10 580,25 580,150 550,150"/>
    <rect class="building" x="540" y="70" width="50" height="80"/>
    <rect class="window" x="555" y="35" width="5" height="8"/>
    <rect class="window" x="570" y="35" width="5" height="8"/>
    <rect class="window" x="555" y="50" width="5" height="8"/>
    <rect class="window" x="570" y="50" width="5" height="8"/>
    <rect class="window" x="545" y="80" width="5" height="8"/>
    <rect class="window" x="560" y="80" width="5" height="8"/>
    <rect class="window" x="575" y="80" width="5" height="8"/>
    <rect class="window" x="545" y="100" width="5" height="8"/>
    <rect class="window" x="560" y="100" width="5" height="8"/>
    <rect class="window" x="575" y="100" width="5" height="8"/>
    <rect class="window" x="545" y="120" width="5" height="8"/>
    <rect class="window" x="560" y="120" width="5" height="8"/>
    <rect class="window" x="575" y="120" width="5" height="8"/>
    
    <!-- 432 Park Avenue -->
    <rect class="building" x="700" y="30" width="30" height="120"/>
    <rect class="window" x="705" y="40" width="8" height="8"/>
    <rect class="window" x="717" y="40" width="8" height="8"/>
    <rect class="window" x="705" y="60" width="8" height="8"/>
    <rect class="window" x="717" y="60" width="8" height="8"/>
    <rect class="window" x="705" y="80" width="8" height="8"/>
    <rect class="window" x="717" y="80" width="8" height="8"/>
    <rect class="window" x="705" y="100" width="8" height="8"/>
    <rect class="window" x="717" y="100" width="8" height="8"/>
    <rect class="window" x="705" y="120" width="8" height="8"/>
    <rect class="window" x="717" y="120" width="8" height="8"/>
    
    <!-- Other Buildings -->
    <rect class="building" x="50" y="70" width="60" height="80"/>
    <rect class="window" x="60" y="80" width="8" height="10"/>
    <rect class="window" x="80" y="80" width="8" height="10"/>
    <rect class="window" x="60" y="100" width="8" height="10"/>
    <rect class="window" x="80" y="100" width="8" height="10"/>
    <rect class="window" x="60" y="120" width="8" height="10"/>
    <rect class="window" x="80" y="120" width="8" height="10"/>
    
    <rect class="building" x="130" y="90" width="30" height="60"/>
    <rect class="window" x="135" y="100" width="6" height="8"/>
    <rect class="window" x="147" y="100" width="6" height="8"/>
    <rect class="window" x="135" y="115" width="6" height="8"/>
    <rect class="window" x="147" y="115" width="6" height="8"/>
    <rect class="window" x="135" y="130" width="6" height="8"/>
    <rect class="window" x="147" y="130" width="6" height="8"/>
    
    <rect class="building" x="280" y="80" width="70" height="70"/>
    <rect class="window" x="290" y="90" width="7" height="9"/>
    <rect class="window" x="310" y="90" width="7" height="9"/>
    <rect class="window" x="330" y="90" width="7" height="9"/>
    <rect class="window" x="290" y="110" width="7" height="9"/>
    <rect class="window" x="310" y="110" width="7" height="9"/>
    <rect class="window" x="330" y="110" width="7" height="9"/>
    <rect class="window" x="290" y="130" width="7" height="9"/>
    <rect class="window" x="310" y="130" width="7" height="9"/>
    <rect class="window" x="330" y="130" width="7" height="9"/>
    
    <rect class="building" x="480" y="100" width="40" height="50"/>
    <rect class="window" x="490" y="110" width="6" height="8"/>
    <rect class="window" x="505" y="110" width="6" height="8"/>
    <rect class="window" x="490" y="130" width="6" height="8"/>
    <rect class="window" x="505" y="130" width="6" height="8"/>
    
    <rect class="building" x="620" y="60" width="50" height="90"/>
    <rect class="window" x="630" y="70" width="7" height="9"/>
    <rect class="window" x="650" y="70" width="7" height="9"/>
    <rect class="window" x="630" y="90" width="7" height="9"/>
    <rect class="window" x="650" y="90" width="7" height="9"/>
    <rect class="window" x="630" y="110" width="7" height="9"/>
    <rect class="window" x="650" y="110" width="7" height="9"/>
    <rect class="window" x="630" y="130" width="7" height="9"/>
    <rect class="window" x="650" y="130" width="7" height="9"/>
    
    <rect class="building" x="760" y="70" width="60" height="80"/>
    <rect class="window" x="770" y="80" width="8" height="10"/>
    <rect class="window" x="790" y="80" width="8" height="10"/>
    <rect class="window" x="770" y="100" width="8" height="10"/>
    <rect class="window" x="790" y="100" width="8" height="10"/>
    <rect class="window" x="770" y="120" width="8" height="10"/>
    <rect class="window" x="790" y="120" width="8" height="10"/>
    
    <rect class="building" x="850" y="50" width="35" height="100"/>
    <rect class="window" x="858" y="60" width="6" height="8"/>
    <rect class="window" x="872" y="60" width="6" height="8"/>
    <rect class="window" x="858" y="80" width="6" height="8"/>
    <rect class="window" x="872" y="80" width="6" height="8"/>
    <rect class="window" x="858" y="100" width="6" height="8"/>
    <rect class="window" x="872" y="100" width="6" height="8"/>
    <rect class="window" x="858" y="120" width="6" height="8"/>
    <rect class="window" x="872" y="120" width="6" height="8"/>
    
    <rect class="building" x="910" y="90" width="45" height="60"/>
    <rect class="window" x="920" y="100" width="7" height="9"/>
    <rect class="window" x="937" y="100" width="7" height="9"/>
    <rect class="window" x="920" y="120" width="7" height="9"/>
    <rect class="window" x="937" y="120" width="7" height="9"/>
    
    <rect class="building" x="980" y="75" width="55" height="75"/>
    <rect class="window" x="990" y="85" width="7" height="9"/>
    <rect class="window" x="1010" y="85" width="7" height="9"/>
    <rect class="window" x="990" y="105" width="7" height="9"/>
    <rect class="window" x="1010" y="105" width="7" height="9"/>
    <rect class="window" x="990" y="125" width="7" height="9"/>
    <rect class="window" x="1010" y="125" width="7" height="9"/>
    
    <rect class="building" x="1060" y="60" width="35" height="90"/>
    <rect class="window" x="1068" y="70" width="6" height="8"/>
    <rect class="window" x="1082" y="70" width="6" height="8"/>
    <rect class="window" x="1068" y="90" width="6" height="8"/>
    <rect class="window" x="1082" y="90" width="6" height="8"/>
    <rect class="window" x="1068" y="110" width="6" height="8"/>
    <rect class="window" x="1082" y="110" width="6" height="8"/>
    <rect class="window" x="1068" y="130" width="6" height="8"/>
    <rect class="window" x="1082" y="130" width="6" height="8"/>
    
    <rect class="building" x="1120" y="95" width="40" height="55"/>
    <rect class="window" x="1130" y="105" width="7" height="9"/>
    <rect class="window" x="1145" y="105" width="7" height="9"/>
    <rect class="window" x="1130" y="125" width="7" height="9"/>
    <rect class="window" x="1145" y="125" width="7" height="9"/>
  </g>
</svg>